<svg xmlns="http://www.w3.org/2000/svg" width="26.398" height="20.371" viewBox="0 0 26.398 20.371">
  <g id="Icon-Ps-White" transform="translate(-82.959 -5070.859)">
    <path id="Tracé_38" data-name="Tracé 38" d="M249.689,0c1.474.309,2.93.7,4.371,1.138a21.71,21.71,0,0,1,3.346,1.233A9.515,9.515,0,0,1,258.43,3,4.808,4.808,0,0,1,259.6,4.2a5.273,5.273,0,0,1,.733,1.89,10.333,10.333,0,0,1,.117,2.531,4.38,4.38,0,0,1-.707,2.132,2.558,2.558,0,0,1-1.141.91,3.094,3.094,0,0,1-1.294.164,5.016,5.016,0,0,1-1.592-.47l-.017-.019c0-1.952,0-3.9,0-5.856a4.851,4.851,0,0,0-.093-1.309,1.088,1.088,0,0,0-.433-.672.793.793,0,0,0-.742-.134.9.9,0,0,0-.413.669,6.051,6.051,0,0,0-.043.99q0,7.67,0,15.34c-1.424-.464-2.856-.905-4.282-1.361q0-9.5,0-19.01" transform="translate(-156.85 5070.859)" fill="#fff"/>
    <path id="Tracé_39" data-name="Tracé 39" d="M4.172,292.258c1.621-.578,3.244-1.148,4.864-1.729-.018.829,0,1.659-.01,2.489-1.311.473-2.626.94-3.939,1.412a4.657,4.657,0,0,0-.93.394.481.481,0,0,0-.227.282c-.032.134.087.244.193.3a2.653,2.653,0,0,0,1.257.212,4.833,4.833,0,0,0,1.684-.312c.654-.24,1.313-.466,1.965-.714,0,.746-.006,1.492,0,2.237-.382.046-.758.139-1.144.158a13.2,13.2,0,0,1-1.812.075,14.343,14.343,0,0,1-2.78-.332c-.5-.132-1.005-.26-1.5-.426a4.342,4.342,0,0,1-1.055-.482,1.572,1.572,0,0,1-.718-.9.981.981,0,0,1,.345-.953A7.028,7.028,0,0,1,2.137,293c.67-.269,1.356-.493,2.034-.738" transform="translate(82.96 4791.824)" fill="#fff"/>
    <path id="Tracé_40" data-name="Tracé 40" d="M382.878,317.835c.282,0,.562-.052.844-.029a13.774,13.774,0,0,1,4.281.66c.235.088.474.167.712.246a3.786,3.786,0,0,1,1.177.665,1.19,1.19,0,0,1,.428.792,1.133,1.133,0,0,1-.31.739,5.074,5.074,0,0,1-1.715,1.022c-3.125,1.13-6.254,2.247-9.38,3.375,0-.828,0-1.657,0-2.485,2.31-.828,4.624-1.649,6.935-2.477a1.137,1.137,0,0,0,.623-.418.243.243,0,0,0-.081-.3,1.614,1.614,0,0,0-.878-.262,4.768,4.768,0,0,0-1.278.051,8.924,8.924,0,0,0-1.468.449q-1.928.68-3.855,1.359c0-.858,0-1.717,0-2.575a16.157,16.157,0,0,1,3.963-.812" transform="translate(-280.965 4765.631)" fill="#fff"/>
  </g>
</svg>
