<svg xmlns="http://www.w3.org/2000/svg" width="20.151" height="20.371" viewBox="0 0 20.151 20.371">
  <path id="Steam-White" d="M10.058,0A10.129,10.129,0,0,0,0,9.368l5.41,2.257a2.819,2.819,0,0,1,1.608-.5q.081,0,.159,0L9.583,7.609V7.56A3.806,3.806,0,1,1,13.389,11.4H13.3L9.871,13.87c0,.046,0,.092,0,.137a2.855,2.855,0,0,1-5.658.569L.347,12.961a10.083,10.083,0,0,0,19.8-2.776A10.139,10.139,0,0,0,10.058,0M6.325,15.455l-1.24-.517a2.133,2.133,0,0,0,3.908-.1,2.169,2.169,0,0,0,0-1.656,2.131,2.131,0,0,0-2.739-1.2l1.281.534a1.6,1.6,0,0,1,.85,2.083,1.573,1.573,0,0,1-2.064.858m9.6-7.894a2.536,2.536,0,1,0-2.536,2.559A2.551,2.551,0,0,0,15.925,7.56m-4.437,0a1.905,1.905,0,1,1,1.9,1.922,1.914,1.914,0,0,1-1.9-1.922" fill="#fff"/>
</svg>
