<svg xmlns="http://www.w3.org/2000/svg" width="30" height="20" viewBox="0 0 30 20"><path fill="#FFF" fill-rule="evenodd" d="M26.28 0c1.61 0 3.022 1.413 3.022 3.023v13.974c0 1.6-1.412 3.003-3.023 3.003H3.023C1.413 20 0 18.597 0 16.997V3.023C0 1.413 1.413 0 3.023 0zm0 2.326H3.022c-.332 0-.697.365-.697.697v13.974c0 .323.365.677.697.677H26.28c.333 0 .698-.354.698-.677V3.023c0-.332-.365-.697-.698-.697zM8.424 10.893a1.164 1.164 0 011.29 1.935l-4.186 2.79a1.162 1.162 0 11-1.29-1.935zm10.84.322a1.163 1.163 0 011.613-.322l4.186 2.79a1.163 1.163 0 01-1.29 1.936l-4.186-2.791a1.163 1.163 0 01-.323-1.613zM3.916 5.17a1.162 1.162 0 011.613-.322l9.122 6.081 9.123-6.081a1.164 1.164 0 011.29 1.934l-9.768 6.512a1.16 1.16 0 01-1.29 0L4.24 6.781a1.163 1.163 0 01-.323-1.612z"/></svg>