<svg xmlns="http://www.w3.org/2000/svg" width="20.37" height="20.371" viewBox="0 0 20.37 20.371">
  <g id="Icon_XBOX-White" data-name="Icon XBOX-White" transform="translate(-85.973 -5210.859)">
    <path id="Tracé_41" data-name="Tracé 41" d="M44.535,3.571A11.041,11.041,0,0,1,48.7,1.7a4.73,4.73,0,0,1,1.749.146,10.187,10.187,0,0,0-11.895.148c.063-.042,1.76-1.112,5.978,1.58" transform="translate(51.551 5210.859)" fill="#fff"/>
    <path id="Tracé_42" data-name="Tracé 42" d="M124.277,31.741a10.159,10.159,0,0,0-3.4-7.6,2.549,2.549,0,0,0-1.84.7c-.329.224-1.487,1.3-2.648,2.37.739.839,1.433,1.77,2.278,2.76,1.452,1.7,3.753,5.71,3.284,8.248a10.146,10.146,0,0,0,2.325-6.478" transform="translate(-17.934 5189.304)" fill="#fff"/>
    <path id="Tracé_43" data-name="Tracé 43" d="M7.392,25.9q.2-.247.417-.483a26.679,26.679,0,0,0-2.791-2.431c-.439-.19-1.039-.564-1.39-.671a10.183,10.183,0,0,0-1.442,14.1c-.452-3.55,3.36-8.219,5.207-10.511" transform="translate(85.974 5190.939)" fill="#fff"/>
    <path id="Tracé_44" data-name="Tracé 44" d="M32.681,71.183l-.057-.047-.152.12c-1.144.886-6.274,6.2-6.975,7.676a3.071,3.071,0,0,0-.368,1.674,10.184,10.184,0,0,0,15.081-.139c.013-.138.054-1.282-1.81-3.491a45.39,45.39,0,0,0-5.72-5.794" transform="translate(63.551 5147.352)" fill="#fff"/>
  </g>
</svg>
